<svg width="131" height="78" viewBox="0 0 131 78" fill="none" xmlns="http://www.w3.org/2000/svg">
<rect x="0.714769" y="1.21428" width="128.57" height="71.428" rx="4.99996" fill="white" stroke="black" stroke-width="1.42856"/>
<path d="M61.4287 0.5H124.285C127.441 0.5 130 3.05835 130 6.21424V67.6424C130 70.7982 127.441 73.3566 124.285 73.3566H61.4287V0.5Z" fill="black"/>
<path d="M75.7739 56.0728H74.5396V43.9357H78.1053C78.6996 43.9357 79.2481 43.9928 79.751 44.1071C80.2653 44.2214 80.7053 44.41 81.071 44.6728C81.4481 44.9243 81.7396 45.2557 81.9453 45.6671C82.151 46.0785 82.2538 46.5814 82.2538 47.1757C82.2538 47.6214 82.1738 48.0271 82.0138 48.3928C81.8538 48.7585 81.6367 49.0785 81.3624 49.3528C81.0881 49.6157 80.7624 49.8271 80.3853 49.9871C80.0081 50.1471 79.5967 50.2499 79.151 50.2957L82.6995 56.0728H81.191L77.831 50.3985H75.7739V56.0728ZM75.7739 49.3357H77.9167C78.911 49.3357 79.6767 49.1585 80.2139 48.8042C80.751 48.4385 81.0196 47.8957 81.0196 47.1757C81.0196 46.7757 80.9453 46.4385 80.7967 46.1643C80.6481 45.89 80.4424 45.6671 80.1796 45.4957C79.9167 45.3243 79.5967 45.1986 79.2196 45.1186C78.8424 45.0386 78.4253 44.9986 77.9682 44.9986H75.7739V49.3357ZM89.1609 50.8957C89.1609 50.1985 88.978 49.6785 88.6123 49.3357C88.2466 48.9928 87.7152 48.8214 87.018 48.8214C86.538 48.8214 86.0923 48.9071 85.6809 49.0785C85.2695 49.2499 84.9209 49.4785 84.6352 49.7642L83.9838 48.9928C84.3152 48.6614 84.7495 48.3871 85.2866 48.17C85.8352 47.9528 86.4523 47.8442 87.138 47.8442C87.5723 47.8442 87.978 47.9071 88.3552 48.0328C88.7323 48.1471 89.0637 48.3242 89.3494 48.5642C89.6352 48.8042 89.858 49.1071 90.018 49.4728C90.178 49.8385 90.258 50.2671 90.258 50.7585V54.2728C90.258 54.5813 90.2694 54.9013 90.2923 55.2328C90.3152 55.5642 90.3494 55.8442 90.3952 56.0728H89.3494C89.3152 55.8785 89.2866 55.667 89.2637 55.4385C89.2409 55.2099 89.2295 54.987 89.2295 54.7699H89.1952C88.8295 55.307 88.4123 55.6956 87.9437 55.9356C87.4866 56.1642 86.9323 56.2785 86.2809 56.2785C85.9723 56.2785 85.6523 56.2328 85.3209 56.1413C85.0009 56.0613 84.7038 55.9242 84.4295 55.7299C84.1666 55.5356 83.9438 55.2842 83.7609 54.9756C83.5895 54.6671 83.5038 54.2899 83.5038 53.8442C83.5038 53.2271 83.6581 52.7414 83.9666 52.3871C84.2866 52.0214 84.7095 51.7528 85.2352 51.5814C85.7609 51.3985 86.3609 51.2842 87.0352 51.2385C87.7209 51.1814 88.4295 51.1528 89.1609 51.1528V50.8957ZM88.818 52.0614C88.338 52.0614 87.8523 52.0842 87.3609 52.1299C86.8809 52.1642 86.4409 52.2442 86.0409 52.3699C85.6523 52.4842 85.3323 52.6556 85.0809 52.8842C84.8295 53.1128 84.7038 53.4156 84.7038 53.7928C84.7038 54.0785 84.7552 54.3185 84.8581 54.5128C84.9723 54.7071 85.1209 54.867 85.3038 54.9928C85.4866 55.107 85.6866 55.1928 85.9038 55.2499C86.1323 55.2956 86.3609 55.3185 86.5895 55.3185C87.0009 55.3185 87.3666 55.2499 87.6866 55.1128C88.0066 54.9642 88.2752 54.7699 88.4923 54.5299C88.7095 54.2785 88.8752 53.9928 88.9895 53.6728C89.1037 53.3528 89.1609 53.0156 89.1609 52.6614V52.0614H88.818ZM96.2822 49.0271H94.0194V53.7071C94.0194 54.0042 94.0479 54.2499 94.1051 54.4442C94.1622 54.6385 94.2422 54.7928 94.3451 54.907C94.4594 55.0099 94.5908 55.0842 94.7394 55.1299C94.8879 55.1642 95.0479 55.1813 95.2194 55.1813C95.3794 55.1813 95.5451 55.1585 95.7165 55.1128C95.8994 55.067 96.0708 55.0042 96.2308 54.9242L96.2822 55.9356C96.0765 56.0156 95.8594 56.0728 95.6308 56.107C95.4136 56.1528 95.1736 56.1756 94.9108 56.1756C94.6936 56.1756 94.4651 56.147 94.2251 56.0899C93.9851 56.0328 93.7622 55.9242 93.5565 55.7642C93.3508 55.6042 93.1794 55.387 93.0422 55.1128C92.9165 54.8385 92.8537 54.4785 92.8537 54.0328V49.0271H91.1908V48.05H92.8537V45.7871H94.0194V48.05H96.2822V49.0271ZM98.8602 56.0728H97.6945V48.05H98.8602V56.0728ZM99.1002 44.9643C99.1002 45.2043 99.0145 45.4043 98.843 45.5643C98.6716 45.7128 98.483 45.7871 98.2773 45.7871C98.0716 45.7871 97.883 45.7128 97.7116 45.5643C97.5402 45.4043 97.4545 45.2043 97.4545 44.9643C97.4545 44.7243 97.5402 44.53 97.7116 44.3814C97.883 44.2214 98.0716 44.1414 98.2773 44.1414C98.483 44.1414 98.6716 44.2214 98.843 44.3814C99.0145 44.53 99.1002 44.7243 99.1002 44.9643ZM102.58 48.05C102.603 48.2671 102.62 48.5071 102.632 48.77C102.643 49.0328 102.649 49.2499 102.649 49.4214H102.683C102.912 48.9528 103.283 48.5757 103.797 48.29C104.312 47.9928 104.854 47.8442 105.426 47.8442C106.443 47.8442 107.203 48.1471 107.706 48.7528C108.22 49.3585 108.477 50.1585 108.477 51.1528V56.0728H107.312V51.6328C107.312 51.2099 107.277 50.8271 107.209 50.4842C107.14 50.1414 107.02 49.8499 106.849 49.6099C106.689 49.3585 106.466 49.1642 106.18 49.0271C105.906 48.89 105.557 48.8214 105.134 48.8214C104.826 48.8214 104.523 48.8842 104.226 49.01C103.94 49.1357 103.683 49.3299 103.454 49.5928C103.226 49.8442 103.043 50.1699 102.906 50.5699C102.769 50.9585 102.7 51.4214 102.7 51.9585V56.0728H101.534V49.8157C101.534 49.5985 101.529 49.3185 101.517 48.9757C101.506 48.6328 101.489 48.3242 101.466 48.05H102.58ZM111.495 57.6842C111.815 58.0956 112.25 58.4442 112.798 58.7299C113.358 59.0156 113.947 59.1584 114.564 59.1584C115.135 59.1584 115.621 59.0727 116.021 58.9013C116.421 58.7413 116.741 58.5184 116.981 58.2327C117.232 57.947 117.415 57.6099 117.53 57.2213C117.644 56.8442 117.701 56.4385 117.701 56.0042V54.4956H117.667C117.358 54.9985 116.918 55.387 116.347 55.6613C115.787 55.9356 115.215 56.0728 114.632 56.0728C114.004 56.0728 113.432 55.9699 112.918 55.7642C112.415 55.5585 111.981 55.2785 111.615 54.9242C111.261 54.5585 110.981 54.1242 110.775 53.6213C110.581 53.1185 110.484 52.5756 110.484 51.9928C110.484 51.4214 110.581 50.8842 110.775 50.3814C110.981 49.8785 111.261 49.4385 111.615 49.0614C111.981 48.6842 112.415 48.3871 112.918 48.17C113.432 47.9528 114.004 47.8442 114.632 47.8442C115.215 47.8442 115.787 47.9814 116.347 48.2557C116.907 48.53 117.347 48.9242 117.667 49.4385H117.701V48.05H118.867V56.0042C118.867 56.4385 118.804 56.9013 118.678 57.3927C118.564 57.8842 118.341 58.3356 118.01 58.747C117.69 59.1584 117.25 59.5013 116.69 59.7756C116.13 60.0499 115.404 60.187 114.512 60.187C113.77 60.187 113.061 60.0442 112.387 59.7584C111.712 59.4727 111.135 59.0784 110.655 58.5756L111.495 57.6842ZM111.718 51.9585C111.718 52.3814 111.787 52.7814 111.924 53.1585C112.061 53.5356 112.255 53.8671 112.507 54.1528C112.77 54.4385 113.09 54.6671 113.467 54.8385C113.844 54.9985 114.272 55.0785 114.752 55.0785C115.198 55.0785 115.61 55.0042 115.987 54.8556C116.364 54.7071 116.69 54.4956 116.964 54.2213C117.238 53.9471 117.45 53.6213 117.598 53.2442C117.758 52.8556 117.838 52.4271 117.838 51.9585C117.838 51.5356 117.758 51.1356 117.598 50.7585C117.45 50.3814 117.238 50.0499 116.964 49.7642C116.69 49.4785 116.364 49.2499 115.987 49.0785C115.61 48.9071 115.198 48.8214 114.752 48.8214C114.272 48.8214 113.844 48.9071 113.467 49.0785C113.09 49.2499 112.77 49.4785 112.507 49.7642C112.255 50.0499 112.061 50.3814 111.924 50.7585C111.787 51.1356 111.718 51.5356 111.718 51.9585Z" fill="white"/>
<path d="M39.6301 41.3337H19.5729L18.8466 43.7321H24.1943L25.2087 47.0384H33.9943L35.015 43.7321H40.3565L39.6301 41.3337ZM22.848 27.8704C21.3115 29.9889 21.7824 32.9517 23.9 34.4894L28.7029 37.9773C29.2361 38.3615 29.3542 39.1065 28.9659 39.6367L29.6861 40.1565L32.2222 36.6623C32.811 35.8571 33.129 34.8857 33.1302 33.8882C33.128 33.6345 33.1071 33.3812 33.0676 33.1305C32.8758 31.8913 32.2002 30.7787 31.189 30.0371L26.3923 26.5554C26.1254 26.3767 25.9441 26.0958 25.8913 25.7789C25.885 25.7163 25.885 25.6537 25.8913 25.5911C25.8929 25.3417 25.9717 25.0989 26.1167 24.896L25.3966 24.37L22.848 27.8704ZM25.741 13.8561C24.8904 15.0239 24.4322 16.4315 24.4323 17.8763C24.4304 18.2432 24.4598 18.6102 24.5199 18.9721C24.7999 20.7741 25.79 22.3889 27.2689 23.4557L33.3055 27.8391C34.0963 28.4103 34.6261 29.2738 34.7771 30.2375C34.8092 30.4321 34.826 30.6289 34.8272 30.8261C34.8241 31.5969 34.5763 32.3468 34.1196 32.9677L34.7019 33.3873L39.4548 26.8184C41.6741 23.7419 40.9877 19.4505 37.9206 17.2188L30.6379 11.9274C30.1825 11.5976 29.8781 11.0992 29.7925 10.5435C29.6997 9.98832 29.8352 9.41919 30.1683 8.96545L29.5921 8.5459L25.741 13.8561ZM13.4174 49.0423H18.9154C20.0444 48.9673 21.157 49.3434 22.0089 50.088C22.5438 50.618 22.8361 51.3454 22.8167 52.0981V52.1357C22.847 53.2172 22.2387 54.2154 21.2637 54.6843C22.6288 55.2103 23.4742 56.0056 23.4742 57.5962C23.4742 59.7628 21.7208 60.8461 19.0469 60.8461H13.4111L13.4174 49.0423ZM18.3769 53.8264C19.5228 53.8264 20.2555 53.4507 20.2555 52.574C20.2555 51.7913 19.6293 51.3216 18.546 51.3216H15.9535V53.8264H18.3769ZM19.0657 58.5918C20.2179 58.5918 20.9067 58.1848 20.9067 57.3394V57.3018C20.9067 56.5128 20.3181 56.0494 18.9843 56.0494H15.9535V58.6544L19.0657 58.5918ZM24.6389 49.0423H30.1369C31.2659 48.9673 32.3785 49.3434 33.2304 50.088C33.763 50.619 34.053 51.3463 34.0319 52.0981V52.1357C34.0622 53.2172 33.4539 54.2154 32.4789 54.6843C33.8503 55.2103 34.6957 56.0056 34.6957 57.5962C34.6957 59.7628 32.9361 60.8461 30.2622 60.8461H24.6389V49.0423ZM29.5796 53.8264C30.7256 53.8264 31.4582 53.4507 31.4582 52.574C31.4582 51.7913 30.832 51.3216 29.755 51.3216H27.1437V53.8264H29.5796ZM30.2684 58.5918C31.4207 58.5918 32.1095 58.1848 32.1095 57.3394V57.3018C32.1095 56.5128 31.5208 56.0494 30.187 56.0494H27.1437V58.6544L30.2684 58.5918ZM35.7978 49.0423H41.2958C42.4248 48.9673 43.5374 49.3434 44.3893 50.088C44.9242 50.618 45.2165 51.3454 45.1971 52.0981V52.1357C45.2274 53.2172 44.6191 54.2154 43.6441 54.6843C45.0155 55.2103 45.8608 56.0056 45.8608 57.5962C45.8608 59.7628 44.1012 60.8461 41.4273 60.8461H35.7915L35.7978 49.0423ZM40.7385 53.8264C41.8845 53.8264 42.6171 53.4507 42.6171 52.574C42.6171 51.7913 41.9909 51.3216 40.9138 51.3216H38.3339V53.8264H40.7385ZM41.4273 58.5918C42.5795 58.5918 43.2746 58.1848 43.2746 57.3394V57.3018C43.2746 56.5128 42.6797 56.0494 41.3459 56.0494H38.3339V58.6544L41.4273 58.5918Z" fill="black"/>
<path d="M93.2305 33.8647L91.6816 29.9503H83.9653L82.5009 33.8647H77.2628L85.6268 13.9263H90.3016L98.5812 33.8647H93.2305ZM87.8797 19.2488L85.3452 26.0921H90.358L87.8797 19.2488ZM109.41 27.1059V32.9917H105.749V27.1059H99.7503V23.5576H105.721V17.6718H109.382V23.5576H115.38V27.1059H109.41Z" fill="#FEFEFE"/>
</svg>
