<svg width="156" height="70" viewBox="0 0 156 70" fill="none" xmlns="http://www.w3.org/2000/svg">
<g clip-path="url(#clip0_5829_16441)">
<path d="M20.1397 34.4041H25.2822C27.0958 34.3803 28.0607 36.1244 28.1525 36.5568V30.6967C28.0607 31.0178 27.0963 32.7615 25.2822 32.7299H20.1397V26.1527H26.5978C27.9353 26.0968 29.1489 27.4683 29.7072 28.7835V24.4785H15.1172C15.5418 24.6019 17.0663 25.2879 17.0304 27.1093V41.1012C17.095 42.3202 16.2968 43.4182 15.1172 43.732H22.0534C21.7085 43.662 20.182 42.9765 20.1402 41.1012V34.4041H20.1397ZM121.073 43.732C121.489 43.662 123.014 42.9765 122.986 41.1012V27.1093C123.014 25.2875 121.489 24.6019 121.073 24.4785H135.543V28.7835C135.099 27.4679 133.885 26.0968 132.554 26.1527H126.096V32.7299H131.238C133.042 32.762 134.009 31.0178 134.109 30.6967V36.5568C134.009 36.1244 133.042 34.3803 131.238 34.4041H126.096V40.6227C126.13 41.2946 126.178 42.4484 129.086 42.2969H130.64C133.963 42.3527 135.069 41.0454 136.5 38.709L135.424 43.7315H121.074L121.073 43.732ZM78.3796 43.732C77.9808 43.662 76.4562 42.9765 76.4664 41.1012V26.1527H79.5757C80.3191 26.0968 82.3741 27.4683 82.8046 28.7835H83.0436L81.9675 24C81.8139 24.291 80.4109 24.5101 79.9343 24.4785H69.8888C69.3864 24.5106 67.9853 24.291 67.8556 24L66.7794 28.7835H67.0185C67.4251 27.4679 69.4802 26.0968 70.2473 26.1527H73.3566V41.1012C73.3425 42.977 71.816 43.6625 71.4434 43.732H78.3796ZM40.2307 24.1195C34.3687 24.0918 29.6353 28.5862 29.5872 34.165C29.6348 39.6782 34.3668 44.1746 40.2307 44.2106C46.0447 44.1746 50.7767 39.6782 50.7548 34.165C50.7767 28.5862 46.0452 24.0918 40.2307 24.1195Z" fill="black"/>
<path d="M40.2311 42.8951C36.4119 42.8533 33.3366 38.9487 33.2949 34.1652C33.3366 29.3156 36.41 25.4115 40.2311 25.4353C44.0001 25.4115 47.0774 29.3161 47.0478 34.1652C47.0779 38.9487 44.0001 42.8533 40.2311 42.8951Z" fill="white"/>
<path d="M65.5839 41.5797L61.6375 34.5239C64.1249 33.8185 65.8827 32.0044 65.8249 29.7405C65.8846 26.8464 64.3421 24.4687 59.4867 24.4784H50.0392C50.4537 24.6018 51.9806 25.2878 51.9524 27.1092V41.1011C52.0103 42.3181 51.2145 43.4122 50.0392 43.7319H56.9735C56.6188 43.6619 55.0938 42.9764 55.0603 41.1011V35.002H58.2891L63.0726 43.7319H68.0951C66.8655 43.3831 66.0862 42.3526 65.5839 41.5792V41.5797Z" fill="black"/>
<path d="M58.6479 33.5667H55.0601V25.7935H58.6479C60.8113 25.8318 62.556 27.5765 62.5943 29.7399C62.5477 31.8804 60.789 33.5857 58.6479 33.5667Z" fill="white"/>
<path d="M97.8728 37.7527C97.8227 40.5434 95.6044 42.4507 92.8503 42.4167C90.1335 42.4527 87.9133 40.9179 87.9473 38.2313L87.8278 27.1097C87.8856 25.2878 89.4125 24.6023 89.741 24.4789H82.9243C83.2473 24.6023 84.7719 25.2883 84.718 27.1097V38.3508C84.7758 42.4128 88.0784 44.2206 92.1327 44.2109C96.2268 44.2187 99.5295 42.4109 99.5474 38.3508L99.4279 27.1097C99.4697 25.2878 100.999 24.6023 101.341 24.4789H95.8401C96.2647 24.6023 97.7892 25.2883 97.7533 27.1097L97.8728 37.7532V37.7527ZM117.127 37.5137L117.007 27.1097C117.035 25.2878 115.51 24.6023 115.094 24.4789H120.595C120.244 24.6023 118.717 25.2883 118.682 27.1097L118.801 43.7323H117.964L105.407 28.6638L105.288 41.1011C105.325 42.9769 106.852 43.6624 107.201 43.7319H101.7C102.118 43.6619 103.643 42.9764 103.613 41.1011L103.732 27.1092C103.707 26.222 103.114 24.8209 102.058 24.4784H106.244L117.126 37.5137H117.127Z" fill="black"/>
</g>
<defs>
<clipPath id="clip0_5829_16441">
<rect width="121.383" height="20.2106" fill="white" transform="translate(15.1172 24)"/>
</clipPath>
</defs>
</svg>
