<svg xmlns="http://www.w3.org/2000/svg" fill="none" viewBox="43.32899999999999 0 217.251 56.666666666666664" style="max-height: 500px" width="217.251" height="56.666666666666664">
<g clip-path="url(#clip0_5584_5364)">
<path fill="#1D252F" d="M70.8174 9.41895H81.2365V11.424H77.2291V22.2511H74.8247V11.424H70.8174V9.41895ZM80.6354 12.8275H82.639V14.632C82.639 14.4315 82.8394 14.231 83.0398 13.83C83.2401 13.429 83.4405 13.429 83.6409 13.2285C83.8412 13.028 84.242 12.8275 84.4423 12.8275C84.6427 12.627 85.0434 12.627 85.4442 12.627H86.0453V14.632H85.2438C84.8431 14.632 84.6427 14.632 84.242 14.8325C83.8412 15.033 83.6409 15.2335 83.4405 15.434C83.2401 15.6345 83.0398 16.0355 82.8394 16.4365C82.639 16.8375 82.639 17.2385 82.639 17.84V22.2511H80.6354V12.8275ZM95.4625 22.2511H93.4589V21.0481C93.2585 21.4491 92.8578 21.8501 92.2567 22.2511C91.8559 22.4516 91.2548 22.6521 90.6537 22.6521C89.4515 22.6521 88.65 22.4516 88.0489 21.6496C87.4478 20.8476 87.2475 20.0456 87.2475 18.8426V13.028H89.2511V18.6421C89.2511 19.4441 89.4515 20.0456 89.6519 20.4466C90.0526 20.8476 90.4534 21.0481 91.0545 21.0481C91.4552 21.0481 91.8559 21.0481 92.0563 20.8476C92.2567 20.6471 92.6574 20.4466 92.6574 20.2461C92.8578 20.0456 93.0581 19.8451 93.0581 19.4441C93.0581 19.0431 93.2585 18.8426 93.2585 18.4416V13.028H95.2622V22.2511H95.4625ZM98.8688 19.2436C98.8688 19.8451 99.0691 20.2461 99.4699 20.4466C99.8706 20.6471 100.271 20.8476 100.872 20.8476H101.474C101.674 20.8476 101.874 20.8476 102.075 20.6471C102.275 20.6471 102.475 20.4466 102.676 20.2461C102.876 20.0456 102.876 19.8451 102.876 19.6446C102.876 19.4441 102.676 19.2436 102.676 19.0431C102.475 18.8426 102.275 18.8426 102.075 18.6421C101.874 18.6421 101.474 18.4416 101.073 18.4416C100.672 18.4416 100.271 18.241 100.071 18.241C99.6702 18.241 99.2695 18.0405 99.0691 17.84C98.8688 17.6395 98.468 17.6395 98.0673 17.439C97.8669 17.2385 97.4662 17.038 97.4662 16.637C97.2658 16.236 97.2658 15.835 97.2658 15.434C97.2658 14.8325 97.4662 14.4315 97.6666 14.231C97.8669 14.0305 98.2677 13.6295 98.6684 13.429C99.0691 13.2285 99.4699 13.028 99.8706 13.028C100.271 13.028 100.872 12.8275 101.273 12.8275C101.674 12.8275 102.275 12.8275 102.676 13.028C103.076 13.028 103.477 13.2285 103.878 13.429C104.279 13.6295 104.479 14.0305 104.679 14.231C104.88 14.632 105.08 15.033 105.08 15.6345H102.876C102.876 15.2335 102.475 14.8325 102.275 14.632C101.674 14.4315 101.273 14.231 100.872 14.231H100.271C100.071 14.231 99.8706 14.231 99.6702 14.4315C99.4699 14.4315 99.2695 14.632 99.2695 14.632C99.1359 14.7657 99.0691 14.8993 99.0691 15.033C99.0691 15.2335 99.0691 15.434 99.2695 15.6345C99.4699 15.835 99.6702 15.835 99.8706 16.0355C100.071 16.0355 100.472 16.236 100.872 16.236C101.273 16.236 101.674 16.4365 102.075 16.4365C102.475 16.4365 102.876 16.637 103.076 16.8375C103.477 17.038 103.678 17.038 104.078 17.2385C104.479 17.439 104.679 17.6395 104.679 18.0405C104.88 18.4416 104.88 18.6421 104.88 19.2436C104.88 19.8451 104.679 20.2461 104.479 20.6471C104.279 21.0481 103.878 21.2486 103.477 21.6496C103.277 22.0506 102.876 22.2511 102.475 22.2511C102.075 22.2511 101.474 22.4516 101.073 22.4516C100.472 22.4516 99.8706 22.4516 99.4699 22.2511C99.0691 22.0506 98.468 21.8501 98.2677 21.6496C97.8669 21.4491 97.6666 21.0481 97.4662 20.6471C97.0655 20.2461 96.8651 19.8451 96.8651 19.2436H98.8688ZM105.681 12.8275H107.284V10.221H109.288V13.028H111.091V14.632H109.288V20.2461C109.288 20.3797 109.355 20.5134 109.488 20.6471L109.689 20.8476H111.091V22.2511H109.889C109.288 22.2511 108.887 22.2511 108.687 22.0506C108.286 22.0506 108.086 21.8501 107.885 21.6496C107.685 21.4491 107.485 21.2486 107.485 20.8476C107.485 20.6471 107.284 20.2461 107.284 19.8451V14.4315H105.681V12.8275ZM112.494 12.8275H114.497V14.231C114.698 13.6295 115.098 13.2285 115.7 13.028C116.301 12.8275 116.701 12.627 117.303 12.627C118.104 12.627 118.705 12.8275 119.306 13.028C119.907 13.2285 120.308 13.6295 120.709 14.0305C121.109 14.4315 121.31 15.033 121.51 15.6345C121.711 16.236 121.711 16.8375 121.711 17.6395C121.711 18.241 121.711 18.8426 121.51 19.4441C121.31 20.0456 121.109 20.4466 120.709 21.0481C120.308 21.4491 119.907 21.8501 119.507 22.0506C118.905 22.2511 118.505 22.4516 117.703 22.4516H116.902C116.701 22.4516 116.301 22.2511 116.1 22.2511C115.9 22.0506 115.499 22.0506 115.299 21.8501L114.698 21.2486V25.8601H112.694V12.8275H112.494ZM119.707 17.6395C119.707 17.2385 119.707 16.8375 119.507 16.4365C119.306 16.0355 119.306 15.6345 119.106 15.434C118.905 15.2335 118.705 14.8325 118.304 14.632C117.904 14.4315 117.703 14.4315 117.102 14.4315C116.301 14.4315 115.499 14.632 115.098 15.2335C114.698 15.835 114.497 16.637 114.497 17.6395C114.497 18.0405 114.497 18.6421 114.698 18.8426C114.898 19.2436 114.898 19.6446 115.299 19.8451C115.499 20.0456 115.7 20.4466 116.1 20.4466C116.501 20.6471 116.701 20.6471 117.102 20.6471C117.503 20.6471 117.904 20.6471 118.304 20.4466C118.705 20.2461 118.905 20.0456 119.106 19.6446C119.306 19.2436 119.507 19.0431 119.507 18.6421C119.507 18.4416 119.707 18.0405 119.707 17.6395ZM123.314 9.41895H125.317V11.424H123.314V9.41895ZM123.314 12.8275H125.317V22.2511H123.314V12.8275ZM127.121 9.41895H129.124V22.2511H127.121V9.41895ZM135.336 22.4516C134.534 22.4516 133.933 22.2511 133.332 22.0506C132.731 21.8501 132.33 21.4491 131.929 21.0481C131.529 20.6471 131.128 20.0456 130.927 19.4441C130.727 18.8426 130.527 18.241 130.527 17.439C130.527 16.637 130.727 16.0355 130.927 15.434C131.128 14.8325 131.529 14.231 131.929 13.83C132.33 13.429 132.731 13.028 133.332 12.8275C133.933 12.627 134.534 12.4265 135.336 12.4265C136.137 12.4265 136.738 12.627 137.339 12.8275C137.94 13.028 138.341 13.429 138.742 13.83C139.143 14.231 139.543 14.8325 139.744 15.434C139.944 16.0355 140.144 16.637 140.144 17.439C140.144 18.241 139.944 18.8426 139.744 19.4441C139.543 20.0456 139.143 20.6471 138.742 21.0481C138.341 21.4491 137.94 21.8501 137.339 22.0506C136.738 22.2511 136.137 22.4516 135.336 22.4516ZM135.336 20.8476C135.736 20.8476 136.137 20.8476 136.538 20.6471C136.938 20.4466 137.139 20.2461 137.339 19.8451C137.54 19.4441 137.74 19.2436 137.74 18.8426C137.74 18.4415 137.94 18.0405 137.94 17.6395C137.94 17.2385 137.94 16.8375 137.74 16.4365C137.74 16.0355 137.54 15.6345 137.339 15.434C137.139 15.2335 136.938 14.8325 136.538 14.632C136.137 14.4315 135.736 14.4315 135.336 14.4315C134.935 14.4315 134.534 14.4315 134.133 14.632C133.733 14.8325 133.532 15.033 133.332 15.434C133.132 15.835 132.931 16.0355 132.931 16.4365C132.931 16.8375 132.731 17.2385 132.731 17.6395C132.731 18.0405 132.731 18.4415 132.931 18.8426C132.931 19.2436 133.132 19.6446 133.332 19.8451C133.532 20.2461 133.733 20.4466 134.133 20.6471C134.534 20.6471 134.935 20.8476 135.336 20.8476ZM140.745 12.8275H142.348V10.221H144.352V13.028H146.155V14.632H144.352V20.2461C144.352 20.3797 144.419 20.5134 144.552 20.6471L144.753 20.8476H146.155V22.2511H144.953C144.352 22.2511 143.951 22.2511 143.751 22.0506C143.35 22.0506 143.15 21.8501 142.95 21.6496C142.749 21.4491 142.549 21.2486 142.549 20.8476C142.549 20.6471 142.348 20.2461 142.348 19.8451V14.4315H140.745V12.8275Z"/>
<path fill="#00B67A" d="M68.4125 9.41909H58.9953L56.1902 0.396484L53.1847 9.41909H43.9678L51.3814 14.8327L48.5762 23.8553L56.1902 18.2412L63.6037 23.8553L60.7986 14.8327L68.4125 9.41909Z"/>
<path fill="#5C708A" d="M61.4 16.8371L60.7989 14.832L56.1904 18.2406L61.4 16.8371Z"/>
</g>
<path fill="#00B67A" d="M175.721 3.44629H156.486V22.6945H175.721V3.44629Z"/>
<path fill="white" d="M165.903 16.2784L168.909 15.4764L170.111 19.2859L165.903 16.2784ZM172.716 11.4664H167.506L165.903 6.6543L164.3 11.4664H159.291L163.499 14.4739L161.896 19.2859L166.103 16.2784L168.708 14.4739L172.716 11.4664Z"/>
<path fill="#00B67A" d="M196.54 3.44629H177.305V22.6945H196.54V3.44629Z"/>
<path fill="white" d="M186.923 16.2784L189.929 15.4764L191.131 19.2859L186.923 16.2784ZM193.536 11.4664H188.326L186.723 6.6543L185.12 11.4664H179.911L184.118 14.4739L182.515 19.2859L186.723 16.2784L189.328 14.4739L193.536 11.4664Z"/>
<path fill="#00B67A" d="M217.36 3.44629H198.125V22.6945H217.36V3.44629Z"/>
<path fill="white" d="M207.742 16.2784L210.747 15.4764L211.95 19.2859L207.742 16.2784ZM214.354 11.4664H209.144L207.541 6.6543L205.939 11.4664H200.729L204.937 14.4739L203.534 19.2859L207.742 16.2784L210.347 14.4739L214.354 11.4664Z"/>
<path fill="#00B67A" d="M238.18 3.44629H218.944V22.6945H238.18V3.44629Z"/>
<path fill="white" d="M228.562 16.2784L231.567 15.4764L232.77 19.2859L228.562 16.2784ZM235.374 11.4664H230.165L228.562 6.6543L226.959 11.4664H221.75L225.957 14.4739L224.354 19.2859L228.562 16.2784L231.167 14.4739L235.374 11.4664Z"/>
<path fill="#00B67A" d="M258.999 3.44629H239.764V22.6945H258.999V3.44629Z"/>
<path fill="#00B67A" d="M239.764 3.44629H249.382V22.494H239.764V3.44629Z"/>
<path fill="white" d="M249.383 16.2784L252.389 15.4764L253.591 19.2859L249.383 16.2784ZM255.995 11.4664H250.786L249.183 6.6543L247.78 11.4664H242.571L246.779 14.4739L245.176 19.2859L249.383 16.2784L251.988 14.4739L255.995 11.4664Z"/>
<path fill="#1D252F" d="M50.7822 54.1411V45.3071H47.8562V44.3411H54.8842V45.3071H51.9582V54.1411H50.7822ZM55.4572 54.1411V47.1971H56.5212L56.6192 48.5271C56.8339 48.0698 57.1605 47.7058 57.5992 47.4351C58.0379 47.1644 58.5792 47.0291 59.2232 47.0291V48.2611H58.9012C58.4905 48.2611 58.1125 48.3358 57.7672 48.4851C57.4219 48.6251 57.1465 48.8678 56.9412 49.2131C56.7359 49.5584 56.6332 50.0344 56.6332 50.6411V54.1411H55.4572ZM63.0771 54.3091C62.2558 54.3091 61.6025 54.0618 61.1171 53.5671C60.6318 53.0631 60.3891 52.2931 60.3891 51.2571V47.1971H61.5651V51.1311C61.5651 52.5778 62.1578 53.3011 63.3431 53.3011C63.9498 53.3011 64.4491 53.0864 64.8411 52.6571C65.2425 52.2184 65.4431 51.5978 65.4431 50.7951V47.1971H66.6191V54.1411H65.5551L65.4711 52.8951C65.2565 53.3338 64.9345 53.6791 64.5051 53.9311C64.0851 54.1831 63.6091 54.3091 63.0771 54.3091ZM71.2149 54.3091C70.3842 54.3091 69.6935 54.0991 69.1429 53.6791C68.5922 53.2591 68.2702 52.6898 68.1769 51.9711H69.3809C69.4555 52.3351 69.6469 52.6524 69.9549 52.9231C70.2722 53.1844 70.6969 53.3151 71.2289 53.3151C71.7235 53.3151 72.0875 53.2124 72.3209 53.0071C72.5542 52.7924 72.6709 52.5404 72.6709 52.2511C72.6709 51.8311 72.5169 51.5511 72.2089 51.4111C71.9102 51.2711 71.4855 51.1451 70.9349 51.0331C70.5615 50.9584 70.1882 50.8511 69.8149 50.7111C69.4415 50.5711 69.1289 50.3751 68.8769 50.1231C68.6249 49.8618 68.4989 49.5211 68.4989 49.1011C68.4989 48.4944 68.7229 47.9998 69.1709 47.6171C69.6282 47.2251 70.2442 47.0291 71.0189 47.0291C71.7562 47.0291 72.3582 47.2158 72.8249 47.5891C73.3009 47.9531 73.5762 48.4758 73.6509 49.1571H72.4889C72.4422 48.8024 72.2882 48.5271 72.0269 48.3311C71.7749 48.1258 71.4342 48.0231 71.0049 48.0231C70.5849 48.0231 70.2582 48.1118 70.0249 48.2891C69.8009 48.4664 69.6889 48.6998 69.6889 48.9891C69.6889 49.2691 69.8335 49.4884 70.1229 49.6471C70.4215 49.8058 70.8229 49.9411 71.3269 50.0531C71.7562 50.1464 72.1622 50.2631 72.5449 50.4031C72.9369 50.5338 73.2542 50.7344 73.4969 51.0051C73.7489 51.2664 73.8749 51.6491 73.8749 52.1531C73.8842 52.7784 73.6462 53.2964 73.1609 53.7071C72.6849 54.1084 72.0362 54.3091 71.2149 54.3091ZM77.9844 54.1411C77.3497 54.1411 76.8504 53.9871 76.4864 53.6791C76.1224 53.3711 75.9404 52.8158 75.9404 52.0131V48.1911H74.7364V47.1971H75.9404L76.0944 45.5311H77.1164V47.1971H79.1604V48.1911H77.1164V52.0131C77.1164 52.4518 77.2051 52.7504 77.3824 52.9091C77.5597 53.0584 77.8724 53.1331 78.3204 53.1331H79.0484V54.1411H77.9844ZM83.8465 54.3091C83.1278 54.3091 82.5025 54.1784 81.9705 53.9171C81.4385 53.6558 81.0278 53.2918 80.7385 52.8251C80.4491 52.3584 80.3045 51.8171 80.3045 51.2011H81.5365C81.5365 51.5838 81.6251 51.9384 81.8025 52.2651C81.9798 52.5824 82.2365 52.8391 82.5725 53.0351C82.9178 53.2218 83.3425 53.3151 83.8465 53.3151C84.5091 53.3151 85.0225 53.1564 85.3865 52.8391C85.7505 52.5218 85.9325 52.1251 85.9325 51.6491C85.9325 51.2571 85.8485 50.9444 85.6805 50.7111C85.5125 50.4684 85.2838 50.2724 84.9945 50.1231C84.7145 49.9738 84.3878 49.8431 84.0145 49.7311C83.6505 49.6191 83.2678 49.4931 82.8665 49.3531C82.1105 49.0918 81.5505 48.7698 81.1865 48.3871C80.8225 47.9951 80.6405 47.4864 80.6405 46.8611C80.6311 46.3384 80.7525 45.8764 81.0045 45.4751C81.2565 45.0644 81.6111 44.7471 82.0685 44.5231C82.5351 44.2898 83.0858 44.1731 83.7205 44.1731C84.3458 44.1731 84.8871 44.2898 85.3445 44.5231C85.8111 44.7564 86.1705 45.0784 86.4225 45.4891C86.6838 45.8998 86.8191 46.3664 86.8285 46.8891H85.5965C85.5965 46.6184 85.5265 46.3524 85.3865 46.0911C85.2465 45.8204 85.0318 45.6011 84.7425 45.4331C84.4625 45.2651 84.1078 45.1811 83.6785 45.1811C83.1465 45.1718 82.7078 45.3071 82.3625 45.5871C82.0265 45.8671 81.8585 46.2544 81.8585 46.7491C81.8585 47.1691 81.9751 47.4911 82.2085 47.7151C82.4511 47.9391 82.7871 48.1258 83.2165 48.2751C83.6458 48.4151 84.1405 48.5784 84.7005 48.7651C85.1671 48.9331 85.5871 49.1291 85.9605 49.3531C86.3338 49.5771 86.6231 49.8664 86.8285 50.2211C87.0431 50.5758 87.1505 51.0284 87.1505 51.5791C87.1505 52.0458 87.0291 52.4891 86.7865 52.9091C86.5438 53.3198 86.1751 53.6558 85.6805 53.9171C85.1951 54.1784 84.5838 54.3091 83.8465 54.3091ZM91.9402 54.3091C91.2776 54.3091 90.6802 54.1598 90.1482 53.8611C89.6256 53.5531 89.2102 53.1284 88.9022 52.5871C88.6036 52.0364 88.4542 51.3971 88.4542 50.6691C88.4542 49.9411 88.6036 49.3064 88.9022 48.7651C89.2102 48.2144 89.6256 47.7898 90.1482 47.4911C90.6802 47.1831 91.2776 47.0291 91.9402 47.0291C92.7616 47.0291 93.4522 47.2438 94.0122 47.6731C94.5816 48.1024 94.9409 48.6764 95.0902 49.3951H93.8862C93.7929 48.9658 93.5642 48.6344 93.2002 48.4011C92.8362 48.1584 92.4116 48.0371 91.9262 48.0371C91.5342 48.0371 91.1656 48.1351 90.8202 48.3311C90.4749 48.5271 90.1949 48.8211 89.9802 49.2131C89.7656 49.6051 89.6582 50.0904 89.6582 50.6691C89.6582 51.2478 89.7656 51.7331 89.9802 52.1251C90.1949 52.5171 90.4749 52.8158 90.8202 53.0211C91.1656 53.2171 91.5342 53.3151 91.9262 53.3151C92.4116 53.3151 92.8362 53.1984 93.2002 52.9651C93.5642 52.7224 93.7929 52.3818 93.8862 51.9431H95.0902C94.9502 52.6431 94.5956 53.2124 94.0262 53.6511C93.4569 54.0898 92.7616 54.3091 91.9402 54.3091ZM99.8966 54.3091C99.2433 54.3091 98.6553 54.1598 98.1326 53.8611C97.6099 53.5624 97.1946 53.1424 96.8866 52.6011C96.5879 52.0504 96.4386 51.4064 96.4386 50.6691C96.4386 49.9318 96.5926 49.2924 96.9006 48.7511C97.2086 48.2004 97.6239 47.7758 98.1466 47.4771C98.6786 47.1784 99.2713 47.0291 99.9246 47.0291C100.578 47.0291 101.166 47.1784 101.689 47.4771C102.211 47.7758 102.622 48.2004 102.921 48.7511C103.229 49.2924 103.383 49.9318 103.383 50.6691C103.383 51.4064 103.229 52.0504 102.921 52.6011C102.613 53.1424 102.193 53.5624 101.661 53.8611C101.138 54.1598 100.55 54.3091 99.8966 54.3091ZM99.8966 53.3011C100.298 53.3011 100.671 53.2031 101.017 53.0071C101.362 52.8111 101.642 52.5171 101.857 52.1251C102.071 51.7331 102.179 51.2478 102.179 50.6691C102.179 50.0904 102.071 49.6051 101.857 49.2131C101.651 48.8211 101.376 48.5271 101.031 48.3311C100.685 48.1351 100.317 48.0371 99.9246 48.0371C99.5233 48.0371 99.1499 48.1351 98.8046 48.3311C98.4593 48.5271 98.1793 48.8211 97.9646 49.2131C97.7499 49.6051 97.6426 50.0904 97.6426 50.6691C97.6426 51.2478 97.7499 51.7331 97.9646 52.1251C98.1793 52.5171 98.4546 52.8111 98.7906 53.0071C99.1359 53.2031 99.5046 53.3011 99.8966 53.3011ZM105.018 54.1411V47.1971H106.082L106.18 48.5271C106.394 48.0698 106.721 47.7058 107.16 47.4351C107.598 47.1644 108.14 47.0291 108.784 47.0291V48.2611H108.462C108.051 48.2611 107.673 48.3358 107.328 48.4851C106.982 48.6251 106.707 48.8678 106.502 49.2131C106.296 49.5584 106.194 50.0344 106.194 50.6411V54.1411H105.018ZM112.966 54.3091C112.303 54.3091 111.715 54.1598 111.202 53.8611C110.689 53.5531 110.283 53.1284 109.984 52.5871C109.695 52.0458 109.55 51.4064 109.55 50.6691C109.55 49.9411 109.695 49.3064 109.984 48.7651C110.273 48.2144 110.675 47.7898 111.188 47.4911C111.711 47.1831 112.313 47.0291 112.994 47.0291C113.666 47.0291 114.245 47.1831 114.73 47.4911C115.225 47.7898 115.603 48.1864 115.864 48.6811C116.125 49.1758 116.256 49.7078 116.256 50.2771C116.256 50.3798 116.251 50.4824 116.242 50.5851C116.242 50.6878 116.242 50.8044 116.242 50.9351H110.712C110.74 51.4671 110.861 51.9104 111.076 52.2651C111.3 52.6104 111.575 52.8718 111.902 53.0491C112.238 53.2264 112.593 53.3151 112.966 53.3151C113.451 53.3151 113.857 53.2031 114.184 52.9791C114.511 52.7551 114.749 52.4518 114.898 52.0691H116.06C115.873 52.7131 115.514 53.2498 114.982 53.6791C114.459 54.0991 113.787 54.3091 112.966 54.3091ZM112.966 48.0231C112.406 48.0231 111.907 48.1958 111.468 48.5411C111.039 48.8771 110.791 49.3718 110.726 50.0251H115.094C115.066 49.3998 114.851 48.9098 114.45 48.5551C114.049 48.2004 113.554 48.0231 112.966 48.0231ZM125.986 54.1411V52.3211H121.156V50.8931L125.748 44.3411H127.778V50.7671H129.066V52.3211H127.778V54.1411H125.986ZM123.074 50.7671H126.098V46.3151L123.074 50.7671ZM131.202 54.2391C130.876 54.2391 130.605 54.1364 130.39 53.9311C130.185 53.7258 130.082 53.4784 130.082 53.1891C130.082 52.8904 130.185 52.6384 130.39 52.4331C130.605 52.2278 130.876 52.1251 131.202 52.1251C131.529 52.1251 131.795 52.2278 132 52.4331C132.215 52.6384 132.322 52.8904 132.322 53.1891C132.322 53.4784 132.215 53.7258 132 53.9311C131.795 54.1364 131.529 54.2391 131.202 54.2391ZM137.296 54.3091C136.624 54.3091 136.017 54.1924 135.476 53.9591C134.934 53.7164 134.5 53.3758 134.174 52.9371C133.856 52.4984 133.698 51.9898 133.698 51.4111C133.698 50.8138 133.852 50.2911 134.16 49.8431C134.477 49.3951 134.892 49.0731 135.406 48.8771C134.958 48.6811 134.603 48.4011 134.342 48.0371C134.08 47.6638 133.95 47.2484 133.95 46.7911C133.95 46.3244 134.076 45.8951 134.328 45.5031C134.58 45.1018 134.953 44.7798 135.448 44.5371C135.952 44.2944 136.568 44.1731 137.296 44.1731C138.024 44.1731 138.635 44.2944 139.13 44.5371C139.624 44.7798 139.998 45.1018 140.25 45.5031C140.502 45.8951 140.628 46.3244 140.628 46.7911C140.628 47.2391 140.492 47.6544 140.222 48.0371C139.96 48.4104 139.61 48.6904 139.172 48.8771C139.694 49.0731 140.11 49.3951 140.418 49.8431C140.726 50.2911 140.88 50.8138 140.88 51.4111C140.88 51.9898 140.721 52.4984 140.404 52.9371C140.086 53.3758 139.652 53.7164 139.102 53.9591C138.56 54.1924 137.958 54.3091 137.296 54.3091ZM137.296 48.3451C137.781 48.3451 138.164 48.2191 138.444 47.9671C138.724 47.7151 138.864 47.3931 138.864 47.0011C138.864 46.5718 138.724 46.2358 138.444 45.9931C138.173 45.7504 137.79 45.6291 137.296 45.6291C136.792 45.6291 136.404 45.7504 136.134 45.9931C135.863 46.2358 135.728 46.5718 135.728 47.0011C135.728 47.4024 135.863 47.7291 136.134 47.9811C136.414 48.2238 136.801 48.3451 137.296 48.3451ZM137.296 52.8111C137.893 52.8111 138.346 52.6664 138.654 52.3771C138.962 52.0784 139.116 51.7051 139.116 51.2571C139.116 50.7624 138.952 50.3751 138.626 50.0951C138.308 49.8151 137.865 49.6751 137.296 49.6751C136.726 49.6751 136.274 49.8151 135.938 50.0951C135.611 50.3751 135.448 50.7624 135.448 51.2571C135.448 51.7051 135.602 52.0784 135.91 52.3771C136.227 52.6664 136.689 52.8111 137.296 52.8111ZM146.432 55.5411V44.0611H147.608V55.5411H146.432ZM154.37 54.1411V46.3851L152.76 46.7631V45.3911L155.126 44.3411H156.232V54.1411H154.37ZM159.197 54.1411V46.3851L157.587 46.7631V45.3911L159.953 44.3411H161.059V54.1411H159.197ZM162.203 55.7651L163.001 52.2791H164.737L163.379 55.7651H162.203ZM170.217 54.3091C169.312 54.3091 168.537 54.0991 167.893 53.6791C167.249 53.2498 166.75 52.6571 166.395 51.9011C166.05 51.1358 165.877 50.2491 165.877 49.2411C165.877 48.2424 166.05 47.3604 166.395 46.5951C166.75 45.8298 167.249 45.2371 167.893 44.8171C168.537 44.3878 169.312 44.1731 170.217 44.1731C171.122 44.1731 171.897 44.3878 172.541 44.8171C173.185 45.2371 173.68 45.8298 174.025 46.5951C174.38 47.3604 174.557 48.2424 174.557 49.2411C174.557 50.2491 174.38 51.1358 174.025 51.9011C173.68 52.6571 173.185 53.2498 172.541 53.6791C171.897 54.0991 171.122 54.3091 170.217 54.3091ZM170.217 52.6991C170.954 52.6991 171.556 52.3911 172.023 51.7751C172.49 51.1591 172.723 50.3144 172.723 49.2411C172.723 48.1678 172.49 47.3231 172.023 46.7071C171.556 46.0911 170.954 45.7831 170.217 45.7831C169.47 45.7831 168.864 46.0911 168.397 46.7071C167.94 47.3231 167.711 48.1678 167.711 49.2411C167.711 50.3144 167.94 51.1591 168.397 51.7751C168.864 52.3911 169.47 52.6991 170.217 52.6991ZM180.157 54.3091C179.251 54.3091 178.477 54.0991 177.833 53.6791C177.189 53.2498 176.689 52.6571 176.335 51.9011C175.989 51.1358 175.817 50.2491 175.817 49.2411C175.817 48.2424 175.989 47.3604 176.335 46.5951C176.689 45.8298 177.189 45.2371 177.833 44.8171C178.477 44.3878 179.251 44.1731 180.157 44.1731C181.062 44.1731 181.837 44.3878 182.481 44.8171C183.125 45.2371 183.619 45.8298 183.965 46.5951C184.319 47.3604 184.497 48.2424 184.497 49.2411C184.497 50.2491 184.319 51.1358 183.965 51.9011C183.619 52.6571 183.125 53.2498 182.481 53.6791C181.837 54.0991 181.062 54.3091 180.157 54.3091ZM180.157 52.6991C180.894 52.6991 181.496 52.3911 181.963 51.7751C182.429 51.1591 182.663 50.3144 182.663 49.2411C182.663 48.1678 182.429 47.3231 181.963 46.7071C181.496 46.0911 180.894 45.7831 180.157 45.7831C179.41 45.7831 178.803 46.0911 178.337 46.7071C177.879 47.3231 177.651 48.1678 177.651 49.2411C177.651 50.3144 177.879 51.1591 178.337 51.7751C178.803 52.3911 179.41 52.6991 180.157 52.6991ZM190.096 54.3091C189.191 54.3091 188.416 54.0991 187.772 53.6791C187.128 53.2498 186.629 52.6571 186.274 51.9011C185.929 51.1358 185.756 50.2491 185.756 49.2411C185.756 48.2424 185.929 47.3604 186.274 46.5951C186.629 45.8298 187.128 45.2371 187.772 44.8171C188.416 44.3878 189.191 44.1731 190.096 44.1731C191.001 44.1731 191.776 44.3878 192.42 44.8171C193.064 45.2371 193.559 45.8298 193.904 46.5951C194.259 47.3604 194.436 48.2424 194.436 49.2411C194.436 50.2491 194.259 51.1358 193.904 51.9011C193.559 52.6571 193.064 53.2498 192.42 53.6791C191.776 54.0991 191.001 54.3091 190.096 54.3091ZM190.096 52.6991C190.833 52.6991 191.435 52.3911 191.902 51.7751C192.369 51.1591 192.602 50.3144 192.602 49.2411C192.602 48.1678 192.369 47.3231 191.902 46.7071C191.435 46.0911 190.833 45.7831 190.096 45.7831C189.349 45.7831 188.743 46.0911 188.276 46.7071C187.819 47.3231 187.59 48.1678 187.59 49.2411C187.59 50.3144 187.819 51.1591 188.276 51.7751C188.743 52.3911 189.349 52.6991 190.096 52.6991ZM195.849 50.8371V49.3391H198.481V46.9171H200.007V49.3391H202.625V50.8371H200.007V53.2591H198.481V50.8371H195.849ZM208.09 54.1411V47.1971H209.154L209.252 48.5271C209.467 48.0698 209.793 47.7058 210.232 47.4351C210.671 47.1644 211.212 47.0291 211.856 47.0291V48.2611H211.534C211.123 48.2611 210.745 48.3358 210.4 48.4851C210.055 48.6251 209.779 48.8678 209.574 49.2131C209.369 49.5584 209.266 50.0344 209.266 50.6411V54.1411H208.09ZM216.038 54.3091C215.376 54.3091 214.788 54.1598 214.274 53.8611C213.761 53.5531 213.355 53.1284 213.056 52.5871C212.767 52.0458 212.622 51.4064 212.622 50.6691C212.622 49.9411 212.767 49.3064 213.056 48.7651C213.346 48.2144 213.747 47.7898 214.26 47.4911C214.783 47.1831 215.385 47.0291 216.066 47.0291C216.738 47.0291 217.317 47.1831 217.802 47.4911C218.297 47.7898 218.675 48.1864 218.936 48.6811C219.198 49.1758 219.328 49.7078 219.328 50.2771C219.328 50.3798 219.324 50.4824 219.314 50.5851C219.314 50.6878 219.314 50.8044 219.314 50.9351H213.784C213.812 51.4671 213.934 51.9104 214.148 52.2651C214.372 52.6104 214.648 52.8718 214.974 53.0491C215.31 53.2264 215.665 53.3151 216.038 53.3151C216.524 53.3151 216.93 53.2031 217.256 52.9791C217.583 52.7551 217.821 52.4518 217.97 52.0691H219.132C218.946 52.7131 218.586 53.2498 218.054 53.6791C217.532 54.0991 216.86 54.3091 216.038 54.3091ZM216.038 48.0231C215.478 48.0231 214.979 48.1958 214.54 48.5411C214.111 48.8771 213.864 49.3718 213.798 50.0251H218.166C218.138 49.3998 217.924 48.9098 217.522 48.5551C217.121 48.2004 216.626 48.0231 216.038 48.0231ZM222.615 54.1411L219.983 47.1971H221.215L223.301 53.0071L225.401 47.1971H226.605L223.973 54.1411H222.615ZM228.628 45.6571C228.395 45.6571 228.199 45.5824 228.04 45.4331C227.891 45.2744 227.816 45.0784 227.816 44.8451C227.816 44.6211 227.891 44.4344 228.04 44.2851C228.199 44.1358 228.395 44.0611 228.628 44.0611C228.852 44.0611 229.044 44.1358 229.202 44.2851C229.361 44.4344 229.44 44.6211 229.44 44.8451C229.44 45.0784 229.361 45.2744 229.202 45.4331C229.044 45.5824 228.852 45.6571 228.628 45.6571ZM228.04 54.1411V47.1971H229.216V54.1411H228.04ZM234.386 54.3091C233.723 54.3091 233.135 54.1598 232.622 53.8611C232.109 53.5531 231.703 53.1284 231.404 52.5871C231.115 52.0458 230.97 51.4064 230.97 50.6691C230.97 49.9411 231.115 49.3064 231.404 48.7651C231.693 48.2144 232.095 47.7898 232.608 47.4911C233.131 47.1831 233.733 47.0291 234.414 47.0291C235.086 47.0291 235.665 47.1831 236.15 47.4911C236.645 47.7898 237.023 48.1864 237.284 48.6811C237.545 49.1758 237.676 49.7078 237.676 50.2771C237.676 50.3798 237.671 50.4824 237.662 50.5851C237.662 50.6878 237.662 50.8044 237.662 50.9351H232.132C232.16 51.4671 232.281 51.9104 232.496 52.2651C232.72 52.6104 232.995 52.8718 233.322 53.0491C233.658 53.2264 234.013 53.3151 234.386 53.3151C234.871 53.3151 235.277 53.2031 235.604 52.9791C235.931 52.7551 236.169 52.4518 236.318 52.0691H237.48C237.293 52.7131 236.934 53.2498 236.402 53.6791C235.879 54.0991 235.207 54.3091 234.386 54.3091ZM234.386 48.0231C233.826 48.0231 233.327 48.1958 232.888 48.5411C232.459 48.8771 232.211 49.3718 232.146 50.0251H236.514C236.486 49.3998 236.271 48.9098 235.87 48.5551C235.469 48.2004 234.974 48.0231 234.386 48.0231ZM240.361 54.1411L238.331 47.1971H239.507L240.977 52.6431L242.601 47.1971H243.931L245.569 52.6431L247.025 47.1971H248.215L246.185 54.1411H244.981L243.273 48.4151L241.565 54.1411H240.361ZM252.176 54.3091C251.345 54.3091 250.654 54.0991 250.104 53.6791C249.553 53.2591 249.231 52.6898 249.138 51.9711H250.342C250.416 52.3351 250.608 52.6524 250.916 52.9231C251.233 53.1844 251.658 53.3151 252.19 53.3151C252.684 53.3151 253.048 53.2124 253.282 53.0071C253.515 52.7924 253.632 52.5404 253.632 52.2511C253.632 51.8311 253.478 51.5511 253.17 51.4111C252.871 51.2711 252.446 51.1451 251.896 51.0331C251.522 50.9584 251.149 50.8511 250.776 50.7111C250.402 50.5711 250.09 50.3751 249.838 50.1231C249.586 49.8618 249.46 49.5211 249.46 49.1011C249.46 48.4944 249.684 47.9998 250.132 47.6171C250.589 47.2251 251.205 47.0291 251.98 47.0291C252.717 47.0291 253.319 47.2158 253.786 47.5891C254.262 47.9531 254.537 48.4758 254.612 49.1571H253.45C253.403 48.8024 253.249 48.5271 252.988 48.3311C252.736 48.1258 252.395 48.0231 251.966 48.0231C251.546 48.0231 251.219 48.1118 250.986 48.2891C250.762 48.4664 250.65 48.6998 250.65 48.9891C250.65 49.2691 250.794 49.4884 251.084 49.6471C251.382 49.8058 251.784 49.9411 252.288 50.0531C252.717 50.1464 253.123 50.2631 253.506 50.4031C253.898 50.5338 254.215 50.7344 254.458 51.0051C254.71 51.2664 254.836 51.6491 254.836 52.1531C254.845 52.7784 254.607 53.2964 254.122 53.7071C253.646 54.1084 252.997 54.3091 252.176 54.3091Z"/>
<defs>
<clipPath id="clip0_5584_5364">
<rect transform="translate(44.001)" fill="white" height="26.1409" width="102.187"/>
</clipPath>
</defs>
</svg>