<svg width="156" height="70" viewBox="0 0 156 70" fill="none" xmlns="http://www.w3.org/2000/svg">
<g clip-path="url(#clip0_5829_16449)">
<path d="M134.443 22.6602H21.0185V44.7548H134.443V22.6602Z" fill="#00549F"/>
<path d="M37.7231 44.395C33.7128 44.395 30.705 42.8817 30.705 39.1173V28.0889H34.2235V38.8146C34.2235 40.5171 35.4909 41.5008 37.7988 41.5008C39.8229 41.5008 41.2416 40.4982 41.2416 38.8335V28.0889H44.7601V39.3254C44.7601 42.7114 41.828 44.395 37.7231 44.395Z" fill="white"/>
<path d="M47.0297 40.9148H43.8895V44.1874H47.0297V40.9148Z" fill="white"/>
<path d="M54.672 44.4139C49.8104 44.4139 48.0512 42.9384 47.408 40.9143C47.2377 40.3847 47.181 39.5902 47.181 39.2686H50.813C50.813 39.5523 50.9076 40.0442 51.04 40.2901C51.494 41.2359 52.5533 41.6332 54.6909 41.6332C57.1312 41.6332 58.0013 40.9711 58.0013 39.8928C58.0013 38.5687 57.3203 38.0957 54.7287 37.6228C54.2558 37.5472 53.083 37.3202 52.3642 37.1688C49.224 36.5824 47.2945 35.1447 47.2945 32.4586C47.2945 29.7724 49.4888 27.8997 54.218 27.8997C58.2472 27.8997 60.1578 29.2995 60.9523 31.3425C61.1604 31.8722 61.3307 32.4775 61.3307 32.8937H57.6987C57.6987 32.7045 57.6041 32.3451 57.4717 32.0992C57.0366 31.2101 56.1664 30.7372 54.1234 30.7372C51.4562 30.7372 50.9265 31.3236 50.9265 32.2505C50.9265 33.4422 51.8912 33.8962 54.5207 34.4259C55.3341 34.5962 56.3934 34.8042 56.7528 34.8799C59.9497 35.4852 61.6144 36.8094 61.6144 39.5712C61.6144 42.4466 59.3066 44.4139 54.672 44.4139Z" fill="white"/>
<path d="M63.9414 40.9148H60.8012V44.1874H63.9414V40.9148Z" fill="white"/>
<path d="M74.8748 44.187L68.3864 33.291V44.187H65.0381V28.0889H69.1241L75.3288 38.4552V28.0889H78.6771V44.187H74.8748Z" fill="white"/>
<path d="M90.8784 43.2983C89.838 43.9603 88.4003 44.3765 86.4708 44.3765C83.8414 44.3765 81.7038 43.6009 80.5499 41.7849C79.9635 40.858 79.6419 39.6663 79.6419 38.1718C79.6419 36.8098 80.0202 35.5992 80.6823 34.6533C81.8173 32.9887 83.8792 32.0239 86.4708 32.0239C89.1948 32.0239 91.0487 33.0076 92.108 34.5588C92.9971 35.8451 93.3187 37.5665 93.1295 39.3447H83.0658C83.0658 39.8933 83.3117 40.2905 83.709 40.7445C84.2008 41.2931 85.1845 41.6336 86.4708 41.6336C87.4356 41.6336 88.1544 41.4633 88.6462 41.2553C89.2705 40.9715 89.5732 40.5932 89.6299 40.3283H93.016C92.7512 41.4633 92.0702 42.5416 90.8784 43.2983ZM89.1002 35.7316C88.6084 35.2398 87.7761 34.8236 86.4897 34.8236C85.2034 34.8236 84.3522 35.1452 83.7657 35.6748C83.3496 36.0343 83.028 36.7531 83.028 37.0936H89.6677C89.6867 36.7342 89.5353 36.1856 89.1002 35.7316Z" fill="white"/>
<path d="M110.022 44.1873H105.936C105.936 44.1873 103.609 37.3584 103.571 36.98C103.552 36.8287 103.42 36.1288 103.42 36.1288C103.42 36.1288 103.287 36.8287 103.269 36.9611C103.25 37.3773 100.904 44.1873 100.904 44.1873H96.7991L92.5428 32.3076H96.1559L99.0123 41.1417L101.623 32.3076H105.463L108.149 41.1417L110.93 32.3076H114.316L110.022 44.1873Z" fill="white"/>
<path d="M120.653 44.3946C116.643 44.3946 114.732 43.6001 114.24 41.6517C114.127 41.1787 114.108 40.8572 114.108 40.4599H117.532C117.532 40.6112 117.551 40.8193 117.645 41.0652C117.853 41.6327 118.761 41.7841 120.653 41.7841C122.545 41.7841 123.226 41.4436 123.226 40.7437C123.226 40.0437 122.507 39.9113 120.766 39.6654C120.312 39.6087 118.894 39.3817 118.175 39.2871C115.564 38.9277 114.316 37.7737 114.316 35.5037C114.316 33.3851 116.207 32.0042 120.029 32.0042C123.282 32.0042 125.344 32.8554 125.95 34.5579C126.101 35.0119 126.158 35.7497 126.158 35.9767H122.809C122.809 35.8442 122.753 35.4848 122.658 35.3335C122.412 35.0119 121.788 34.7282 120.161 34.7282C118.269 34.7282 117.702 35.0308 117.702 35.5983C117.702 36.1091 118.08 36.3172 119.764 36.5631C120.445 36.6577 122.109 36.9036 122.526 36.9792C125.363 37.4143 126.631 38.4737 126.631 40.6869C126.612 43.1461 124.758 44.3946 120.653 44.3946Z" fill="white"/>
<path d="M82.5359 30.265C82.6305 30.1326 82.7062 29.9623 82.7062 29.7732H83.6142C83.5953 30.1704 83.4439 30.5298 83.1791 30.7757C83.3872 30.9271 83.6331 31.1162 83.879 31.3054H82.6494C82.5927 31.2676 82.5548 31.2108 82.4981 31.173C82.2522 31.2865 81.9117 31.3243 81.609 31.3243C80.8334 31.3243 80.1524 31.1919 80.1146 30.5866V30.4163C80.1146 30.0569 80.474 29.8299 80.8523 29.6407C80.6632 29.3759 80.5875 29.1489 80.5875 28.9597V28.7895C80.6064 28.3922 81.0037 28.0139 81.6658 28.0139C82.29 28.0139 82.6305 28.3733 82.6683 28.7706V28.9219C82.6683 29.3381 82.3468 29.6218 82.0252 29.811C82.1765 29.9434 82.3468 30.1137 82.5359 30.265ZM81.0793 30.4731C81.0793 30.6244 81.2307 30.6812 81.5523 30.6812C81.6468 30.6812 81.7603 30.6812 81.836 30.6433C81.6468 30.4731 81.4577 30.3407 81.3253 30.1893C81.1739 30.3028 81.0793 30.3785 81.0793 30.4731ZM81.8738 28.9976V28.9408C81.8738 28.8273 81.8171 28.7327 81.6658 28.7327C81.5144 28.7327 81.4577 28.8273 81.4577 28.9408V29.0354C81.4577 29.13 81.5144 29.2246 81.5901 29.3381C81.7414 29.2435 81.8549 29.13 81.8738 28.9976Z" fill="white"/>
<path d="M88.7403 31.3236H87.662C87.662 31.3236 87.1891 29.4509 87.1702 29.3563C87.1702 29.4698 86.6784 31.3236 86.6784 31.3236H85.6001L84.6732 28.0889H85.7325C85.7325 28.0889 86.2244 30.094 86.2244 30.1886C86.2244 30.094 86.6973 28.0889 86.6973 28.0889H87.7188C87.7188 28.0889 88.2106 30.094 88.2106 30.1886C88.2106 30.094 88.7024 28.0889 88.7024 28.0889H89.6672L88.7403 31.3236Z" fill="white"/>
<path d="M93.1483 29.6597C93.1483 30.7947 92.5997 31.3622 91.4269 31.3622C90.254 31.3622 89.7054 30.7757 89.7054 29.6786C89.7054 28.6382 90.2351 28.0139 91.4269 28.0139C92.6375 28.0139 93.1483 28.5814 93.1483 29.6597ZM92.1457 29.6975C92.1457 29.0543 91.9754 28.7895 91.4269 28.7895C90.8783 28.7895 90.708 29.0543 90.708 29.6975C90.708 30.3785 90.9539 30.6055 91.4269 30.6055C91.8809 30.6055 92.1457 30.4163 92.1457 29.6975Z" fill="white"/>
<path d="M96.5537 29.7157C96.4592 29.886 96.3078 29.9995 96.1565 30.0184L96.9132 31.3236H95.7971L95.2296 30.2265H94.5675V31.3236H93.5838V28.0889H95.6268C96.0619 28.0889 96.3457 28.2024 96.497 28.4294C96.6294 28.5996 96.6862 28.8077 96.6862 29.1104C96.6862 29.3563 96.6294 29.5644 96.5537 29.7157ZM95.6836 28.978C95.6457 28.8834 95.5512 28.8455 95.3998 28.8455H94.5675V29.5076H95.4187C95.5322 29.5076 95.6457 29.4698 95.6836 29.3941C95.7025 29.3374 95.7214 29.2617 95.7214 29.186C95.7214 29.1104 95.7214 29.0347 95.6836 28.978Z" fill="white"/>
<path d="M97.3664 31.3236V28.0889H98.369V30.5102H99.9202V31.3236H97.3664Z" fill="white"/>
<path d="M102.247 31.3236H100.431V28.0889H102.209C102.795 28.0889 103.155 28.2213 103.363 28.505C103.552 28.7888 103.609 29.0536 103.609 29.64C103.609 30.321 103.552 30.5859 103.382 30.8507C103.155 31.1534 102.833 31.3236 102.247 31.3236ZM102.625 29.64C102.625 29.413 102.606 29.1104 102.531 29.0158C102.398 28.8834 102.285 28.8455 102.039 28.8455H101.415V30.548H102.039C102.285 30.548 102.417 30.4913 102.531 30.3589C102.606 30.2643 102.625 29.9049 102.625 29.64Z" fill="white"/>
<path d="M108.187 29.7157C108.092 29.886 107.941 29.9995 107.789 30.0184L108.546 31.3236H107.449L106.881 30.2265H106.219V31.3236H105.255V28.0889H107.298C107.733 28.0889 108.016 28.2024 108.168 28.4294C108.3 28.5996 108.357 28.8077 108.357 29.1104C108.338 29.3563 108.281 29.5644 108.187 29.7157ZM107.335 28.978C107.279 28.8834 107.184 28.8455 107.052 28.8455H106.219V29.5076H107.071C107.184 29.5076 107.298 29.4698 107.335 29.3941C107.354 29.3374 107.373 29.2617 107.373 29.186C107.373 29.1104 107.354 29.0347 107.335 28.978Z" fill="white"/>
<path d="M109.057 31.3236V28.0889H111.819V28.8455H110.04V29.3185H111.743V30.0751H110.04V30.567H111.838V31.3236H109.057Z" fill="white"/>
<path d="M115.356 29.9805C115.166 30.1886 114.864 30.3021 114.467 30.3021H113.464V31.3236H112.461V28.0889H114.448C114.845 28.0889 115.11 28.1835 115.299 28.3537C115.488 28.524 115.583 28.7888 115.583 29.205C115.583 29.5455 115.507 29.8103 115.356 29.9805ZM114.542 28.978C114.485 28.8834 114.391 28.8266 114.239 28.8266H113.445V29.5644H114.221C114.41 29.5644 114.504 29.5076 114.542 29.413C114.58 29.3563 114.58 29.2995 114.58 29.205C114.599 29.1104 114.58 29.0347 114.542 28.978Z" fill="white"/>
<path d="M119.386 29.6597C119.386 30.7947 118.837 31.3622 117.664 31.3622C116.492 31.3622 115.943 30.7757 115.943 29.6786C115.943 28.6382 116.473 28.0139 117.664 28.0139C118.894 28.0139 119.386 28.5814 119.386 29.6597ZM118.383 29.6975C118.383 29.0543 118.213 28.7895 117.664 28.7895C117.116 28.7895 116.946 29.0543 116.946 29.6975C116.946 30.3785 117.192 30.6055 117.664 30.6055C118.118 30.6055 118.383 30.4163 118.383 29.6975Z" fill="white"/>
<path d="M122.81 29.7157C122.715 29.886 122.564 29.9995 122.413 30.0184L123.169 31.3236H122.053L121.486 30.2265H120.824V31.3236H119.84V28.0889H121.883C122.318 28.0889 122.602 28.2024 122.753 28.4294C122.885 28.5996 122.942 28.8077 122.942 29.1104C122.942 29.3563 122.885 29.5644 122.81 29.7157ZM121.94 28.978C121.883 28.8834 121.788 28.8455 121.656 28.8455H120.824V29.5076H121.675C121.788 29.5076 121.902 29.4698 121.94 29.3941C121.959 29.3374 121.977 29.2617 121.977 29.186C121.977 29.1104 121.977 29.0347 121.94 28.978Z" fill="white"/>
<path d="M125.268 28.8645V31.3236H124.266V28.8645H123.244V28.0889H126.309V28.8645H125.268Z" fill="white"/>
<path d="M134.461 43.8468H21.0369V44.8872H134.461V43.8468Z" fill="white"/>
<path d="M134.5 44.7178H21V47.7255H134.5V44.7178Z" fill="#E41319"/>
</g>
<defs>
<clipPath id="clip0_5829_16449">
<rect width="113.5" height="25.0646" fill="white" transform="translate(21 22.6602)"/>
</clipPath>
</defs>
</svg>
